<?xml version="1.0" encoding="UTF-8"?>
<!DOCTYPE svg PUBLIC "-//W3C//DTD SVG 1.1//EN"
    "http://www.w3.org/Graphics/SVG/1.1/DTD/svg11.dtd"><svg xmlns="http://www.w3.org/2000/svg" height="40.4082" viewBox="0.0 0.0 90.0 40.408163265306115" font-size="1" xmlns:xlink="http://www.w3.org/1999/xlink" version="1.1" stroke-opacity="1" width="90.0000" stroke="rgb(0,0,0)"><defs></defs><g stroke-width="1.2061069096688817" fill="rgb(0,0,0)" stroke-linecap="butt" stroke-linejoin="miter" stroke-opacity="1.0" fill-opacity="0.0" stroke="rgb(0,0,0)" stroke-miterlimit="10.0"><path d="M 78.9796,29.3878 h 9.1837 "/></g><g stroke-width="1.2061069096688817" fill="rgb(0,0,0)" stroke-linecap="butt" stroke-linejoin="miter" stroke-opacity="1.0" fill-opacity="0.0" stroke="rgb(0,0,0)" stroke-miterlimit="10.0"><path d="M 78.9796,20.2041 h 9.1837 "/></g><g stroke-width="1.2061069096688817" fill="rgb(0,0,0)" stroke-linecap="butt" stroke-linejoin="miter" stroke-opacity="1.0" fill-opacity="0.0" stroke="rgb(0,0,0)" stroke-miterlimit="10.0"><path d="M 69.7959,20.2041 h 9.1837 "/></g><g stroke-width="1.2061069096688817" fill="rgb(0,0,0)" stroke-linecap="butt" stroke-linejoin="miter" stroke-opacity="1.0" fill-opacity="0.0" stroke="rgb(0,0,0)" stroke-miterlimit="10.0"><path d="M 60.6122,20.2041 h 9.1837 "/></g><g stroke-width="1.2061069096688817" fill="rgb(0,0,0)" stroke-linecap="butt" stroke-linejoin="miter" stroke-opacity="1.0" fill-opacity="0.0" stroke="rgb(0,0,0)" stroke-miterlimit="10.0"><path d="M 51.4286,20.2041 h 9.1837 "/></g><g stroke-width="1.2061069096688817" fill="rgb(0,0,0)" stroke-linecap="butt" stroke-linejoin="miter" stroke-opacity="1.0" fill-opacity="0.0" stroke="rgb(0,0,0)" stroke-miterlimit="10.0"><path d="M 69.7959,11.0204 h 9.1837 "/></g><g stroke-width="1.2061069096688817" fill="rgb(0,0,0)" stroke-linecap="butt" stroke-linejoin="miter" stroke-opacity="1.0" fill-opacity="0.0" stroke="rgb(0,0,0)" stroke-miterlimit="10.0"><path d="M 60.6122,11.0204 h 9.1837 "/></g><g stroke-width="1.2061069096688817" fill="rgb(0,0,0)" stroke-linecap="butt" stroke-linejoin="miter" stroke-opacity="1.0" fill-opacity="0.0" stroke="rgb(0,0,0)" stroke-miterlimit="10.0"><path d="M 51.4286,11.0204 h 9.1837 "/></g><g stroke-width="1.2061069096688817" fill="rgb(0,0,0)" stroke-linecap="butt" stroke-linejoin="miter" stroke-opacity="1.0" fill-opacity="0.0" stroke="rgb(0,0,0)" stroke-miterlimit="10.0"><path d="M 88.1633,11.0204 v 9.1837 "/></g><g stroke-width="1.2061069096688817" fill="rgb(0,0,0)" stroke-linecap="butt" stroke-linejoin="miter" stroke-opacity="1.0" fill-opacity="0.0" stroke="rgb(0,0,0)" stroke-miterlimit="10.0"><path d="M 88.1633,1.8367 v 9.1837 "/></g><g stroke-width="1.2061069096688817" fill="rgb(0,0,0)" stroke-linecap="butt" stroke-linejoin="miter" stroke-opacity="1.0" fill-opacity="0.0" stroke="rgb(0,0,0)" stroke-miterlimit="10.0"><path d="M 78.9796,29.3878 v 9.1837 "/></g><g stroke-width="1.2061069096688817" fill="rgb(0,0,0)" stroke-linecap="butt" stroke-linejoin="miter" stroke-opacity="1.0" fill-opacity="0.0" stroke="rgb(0,0,0)" stroke-miterlimit="10.0"><path d="M 78.9796,20.2041 v 9.1837 "/></g><g stroke-width="1.2061069096688817" fill="rgb(0,0,0)" stroke-linecap="butt" stroke-linejoin="miter" stroke-opacity="1.0" fill-opacity="0.0" stroke="rgb(0,0,0)" stroke-miterlimit="10.0"><path d="M 78.9796,11.0204 v 9.1837 "/></g><g stroke-width="1.2061069096688817" fill="rgb(0,0,0)" stroke-linecap="butt" stroke-linejoin="miter" stroke-opacity="1.0" fill-opacity="0.0" stroke="rgb(0,0,0)" stroke-miterlimit="10.0"><path d="M 60.6122,20.2041 v 9.1837 "/></g><g stroke-width="1.2061069096688817" fill="rgb(0,0,0)" stroke-linecap="butt" stroke-linejoin="miter" stroke-opacity="1.0" fill-opacity="0.0" stroke="rgb(0,0,0)" stroke-miterlimit="10.0"><path d="M 60.6122,11.0204 v 9.1837 "/></g><g stroke-width="1.2061069096688817" fill="rgb(0,0,0)" stroke-linecap="butt" stroke-linejoin="miter" stroke-opacity="1.0" fill-opacity="0.0" stroke="rgb(0,0,0)" stroke-miterlimit="10.0"><path d="M 51.4286,11.0204 v 9.1837 "/></g><g stroke-width="0.5" fill="rgb(0,0,0)" stroke-linecap="butt" stroke-linejoin="miter" stroke-opacity="1.0" fill-opacity="1.0" stroke="rgb(0,0,0)" stroke-miterlimit="10.0"><path d="M 53.2653,38.5714 c 0.0000,-1.0144 -0.8223,-1.8367 -1.8367 -1.8367c -1.0144,-0.0000 -1.8367,0.8223 -1.8367 1.8367c -0.0000,1.0144 0.8223,1.8367 1.8367 1.8367c 1.0144,0.0000 1.8367,-0.8223 1.8367 -1.8367Z"/></g><g stroke-width="0.5" fill="rgb(0,0,0)" stroke-linecap="butt" stroke-linejoin="miter" stroke-opacity="1.0" fill-opacity="1.0" stroke="rgb(0,0,0)" stroke-miterlimit="10.0"><path d="M 53.2653,1.8367 c 0.0000,-1.0144 -0.8223,-1.8367 -1.8367 -1.8367c -1.0144,-0.0000 -1.8367,0.8223 -1.8367 1.8367c -0.0000,1.0144 0.8223,1.8367 1.8367 1.8367c 1.0144,0.0000 1.8367,-0.8223 1.8367 -1.8367Z"/></g><g stroke-width="0.5" fill="rgb(0,0,0)" stroke-linecap="butt" stroke-linejoin="miter" stroke-opacity="1.0" fill-opacity="1.0" stroke="rgb(0,0,0)" stroke-miterlimit="10.0"><path d="M 90.0000,1.8367 c 0.0000,-1.0144 -0.8223,-1.8367 -1.8367 -1.8367c -1.0144,-0.0000 -1.8367,0.8223 -1.8367 1.8367c -0.0000,1.0144 0.8223,1.8367 1.8367 1.8367c 1.0144,0.0000 1.8367,-0.8223 1.8367 -1.8367Z"/></g><g stroke-width="0.5" fill="rgb(0,0,0)" stroke-linecap="butt" stroke-linejoin="miter" stroke-opacity="1.0" fill-opacity="1.0" stroke="rgb(0,0,0)" stroke-miterlimit="10.0"><path d="M 90.0000,38.5714 c 0.0000,-1.0144 -0.8223,-1.8367 -1.8367 -1.8367c -1.0144,-0.0000 -1.8367,0.8223 -1.8367 1.8367c -0.0000,1.0144 0.8223,1.8367 1.8367 1.8367c 1.0144,0.0000 1.8367,-0.8223 1.8367 -1.8367Z"/></g><g stroke-width="1.2061069096688817" fill="rgb(0,0,0)" stroke-linecap="butt" stroke-linejoin="miter" stroke-opacity="1.0" fill-opacity="0.0" stroke="rgb(0,0,0)" stroke-miterlimit="10.0"><path d="M 11.0204,38.5714 h 9.1837 "/></g><g stroke-width="1.2061069096688817" fill="rgb(0,0,0)" stroke-linecap="butt" stroke-linejoin="miter" stroke-opacity="1.0" fill-opacity="0.0" stroke="rgb(0,0,0)" stroke-miterlimit="10.0"><path d="M 1.8367,38.5714 h 9.1837 "/></g><g stroke-width="1.2061069096688817" fill="rgb(0,0,0)" stroke-linecap="butt" stroke-linejoin="miter" stroke-opacity="1.0" fill-opacity="0.0" stroke="rgb(0,0,0)" stroke-miterlimit="10.0"><path d="M 29.3878,29.3878 h 9.1837 "/></g><g stroke-width="1.2061069096688817" fill="rgb(0,0,0)" stroke-linecap="butt" stroke-linejoin="miter" stroke-opacity="1.0" fill-opacity="0.0" stroke="rgb(0,0,0)" stroke-miterlimit="10.0"><path d="M 29.3878,20.2041 h 9.1837 "/></g><g stroke-width="1.2061069096688817" fill="rgb(0,0,0)" stroke-linecap="butt" stroke-linejoin="miter" stroke-opacity="1.0" fill-opacity="0.0" stroke="rgb(0,0,0)" stroke-miterlimit="10.0"><path d="M 29.3878,11.0204 h 9.1837 "/></g><g stroke-width="1.2061069096688817" fill="rgb(0,0,0)" stroke-linecap="butt" stroke-linejoin="miter" stroke-opacity="1.0" fill-opacity="0.0" stroke="rgb(0,0,0)" stroke-miterlimit="10.0"><path d="M 20.2041,11.0204 h 9.1837 "/></g><g stroke-width="1.2061069096688817" fill="rgb(0,0,0)" stroke-linecap="butt" stroke-linejoin="miter" stroke-opacity="1.0" fill-opacity="0.0" stroke="rgb(0,0,0)" stroke-miterlimit="10.0"><path d="M 11.0204,11.0204 h 9.1837 "/></g><g stroke-width="1.2061069096688817" fill="rgb(0,0,0)" stroke-linecap="butt" stroke-linejoin="miter" stroke-opacity="1.0" fill-opacity="0.0" stroke="rgb(0,0,0)" stroke-miterlimit="10.0"><path d="M 1.8367,11.0204 h 9.1837 "/></g><g stroke-width="1.2061069096688817" fill="rgb(0,0,0)" stroke-linecap="butt" stroke-linejoin="miter" stroke-opacity="1.0" fill-opacity="0.0" stroke="rgb(0,0,0)" stroke-miterlimit="10.0"><path d="M 38.5714,11.0204 v 9.1837 "/></g><g stroke-width="1.2061069096688817" fill="rgb(0,0,0)" stroke-linecap="butt" stroke-linejoin="miter" stroke-opacity="1.0" fill-opacity="0.0" stroke="rgb(0,0,0)" stroke-miterlimit="10.0"><path d="M 29.3878,29.3878 v 9.1837 "/></g><g stroke-width="1.2061069096688817" fill="rgb(0,0,0)" stroke-linecap="butt" stroke-linejoin="miter" stroke-opacity="1.0" fill-opacity="0.0" stroke="rgb(0,0,0)" stroke-miterlimit="10.0"><path d="M 29.3878,20.2041 v 9.1837 "/></g><g stroke-width="1.2061069096688817" fill="rgb(0,0,0)" stroke-linecap="butt" stroke-linejoin="miter" stroke-opacity="1.0" fill-opacity="0.0" stroke="rgb(0,0,0)" stroke-miterlimit="10.0"><path d="M 29.3878,11.0204 v 9.1837 "/></g><g stroke-width="1.2061069096688817" fill="rgb(0,0,0)" stroke-linecap="butt" stroke-linejoin="miter" stroke-opacity="1.0" fill-opacity="0.0" stroke="rgb(0,0,0)" stroke-miterlimit="10.0"><path d="M 20.2041,1.8367 v 9.1837 "/></g><g stroke-width="1.2061069096688817" fill="rgb(0,0,0)" stroke-linecap="butt" stroke-linejoin="miter" stroke-opacity="1.0" fill-opacity="0.0" stroke="rgb(0,0,0)" stroke-miterlimit="10.0"><path d="M 11.0204,29.3878 v 9.1837 "/></g><g stroke-width="1.2061069096688817" fill="rgb(0,0,0)" stroke-linecap="butt" stroke-linejoin="miter" stroke-opacity="1.0" fill-opacity="0.0" stroke="rgb(0,0,0)" stroke-miterlimit="10.0"><path d="M 11.0204,20.2041 v 9.1837 "/></g><g stroke-width="1.2061069096688817" fill="rgb(0,0,0)" stroke-linecap="butt" stroke-linejoin="miter" stroke-opacity="1.0" fill-opacity="0.0" stroke="rgb(0,0,0)" stroke-miterlimit="10.0"><path d="M 11.0204,11.0204 v 9.1837 "/></g><g stroke-width="0.5" fill="rgb(0,0,0)" stroke-linecap="butt" stroke-linejoin="miter" stroke-opacity="1.0" fill-opacity="1.0" stroke="rgb(0,0,0)" stroke-miterlimit="10.0"><path d="M 3.6735,38.5714 c 0.0000,-1.0144 -0.8223,-1.8367 -1.8367 -1.8367c -1.0144,-0.0000 -1.8367,0.8223 -1.8367 1.8367c -0.0000,1.0144 0.8223,1.8367 1.8367 1.8367c 1.0144,0.0000 1.8367,-0.8223 1.8367 -1.8367Z"/></g><g stroke-width="0.5" fill="rgb(0,0,0)" stroke-linecap="butt" stroke-linejoin="miter" stroke-opacity="1.0" fill-opacity="1.0" stroke="rgb(0,0,0)" stroke-miterlimit="10.0"><path d="M 3.6735,1.8367 c 0.0000,-1.0144 -0.8223,-1.8367 -1.8367 -1.8367c -1.0144,-0.0000 -1.8367,0.8223 -1.8367 1.8367c -0.0000,1.0144 0.8223,1.8367 1.8367 1.8367c 1.0144,0.0000 1.8367,-0.8223 1.8367 -1.8367Z"/></g><g stroke-width="0.5" fill="rgb(0,0,0)" stroke-linecap="butt" stroke-linejoin="miter" stroke-opacity="1.0" fill-opacity="1.0" stroke="rgb(0,0,0)" stroke-miterlimit="10.0"><path d="M 40.4082,1.8367 c 0.0000,-1.0144 -0.8223,-1.8367 -1.8367 -1.8367c -1.0144,-0.0000 -1.8367,0.8223 -1.8367 1.8367c -0.0000,1.0144 0.8223,1.8367 1.8367 1.8367c 1.0144,0.0000 1.8367,-0.8223 1.8367 -1.8367Z"/></g><g stroke-width="0.5" fill="rgb(0,0,0)" stroke-linecap="butt" stroke-linejoin="miter" stroke-opacity="1.0" fill-opacity="1.0" stroke="rgb(0,0,0)" stroke-miterlimit="10.0"><path d="M 40.4082,38.5714 c 0.0000,-1.0144 -0.8223,-1.8367 -1.8367 -1.8367c -1.0144,-0.0000 -1.8367,0.8223 -1.8367 1.8367c -0.0000,1.0144 0.8223,1.8367 1.8367 1.8367c 1.0144,0.0000 1.8367,-0.8223 1.8367 -1.8367Z"/></g></svg>