<?xml version="1.0" encoding="UTF-8"?>
<!DOCTYPE svg PUBLIC "-//W3C//DTD SVG 1.1//EN"
    "http://www.w3.org/Graphics/SVG/1.1/DTD/svg11.dtd"><svg xmlns="http://www.w3.org/2000/svg" height="324.5714" viewBox="0.0 0.0 480.0 324.5714285714285" font-size="1" xmlns:xlink="http://www.w3.org/1999/xlink" version="1.1" stroke-opacity="1" width="480.0000" stroke="rgb(0,0,0)"><defs></defs><g font-size="45.714285714285715px" stroke-width="1.5788313942370706" fill="rgb(0,0,0)" stroke-linecap="butt" stroke-linejoin="miter" stroke-opacity="1.0" fill-opacity="1.0" stroke="rgb(0,0,0)" stroke-miterlimit="10.0"><text text-anchor="middle" transform="matrix(1.0000,0.0000,0.0000,1.0000,425.1429,274.2857)" dominant-baseline="text-before-edge" stroke="none">ED</text></g><g stroke-width="1.5788313942370706" fill="rgb(0,0,0)" stroke-linecap="butt" stroke-linejoin="miter" stroke-opacity="1.0" fill-opacity="1.0" stroke="rgb(0,0,0)" stroke-miterlimit="10.0"><path d="M 384.0000,269.7143 c 0.0000,-2.5247 -2.0467,-4.5714 -4.5714 -4.5714c -2.5247,-0.0000 -4.5714,2.0467 -4.5714 4.5714c -0.0000,2.5247 2.0467,4.5714 4.5714 4.5714c 2.5247,0.0000 4.5714,-2.0467 4.5714 -4.5714Z"/></g><g stroke-width="1.5788313942370706" fill="rgb(0,0,0)" stroke-linecap="butt" stroke-linejoin="miter" stroke-opacity="1.0" fill-opacity="1.0" stroke="rgb(0,0,0)" stroke-miterlimit="10.0"><path d="M 384.0000,178.2857 c 0.0000,-2.5247 -2.0467,-4.5714 -4.5714 -4.5714c -2.5247,-0.0000 -4.5714,2.0467 -4.5714 4.5714c -0.0000,2.5247 2.0467,4.5714 4.5714 4.5714c 2.5247,0.0000 4.5714,-2.0467 4.5714 -4.5714Z"/></g><g stroke-width="1.5788313942370706" fill="rgb(0,0,0)" stroke-linecap="butt" stroke-linejoin="miter" stroke-opacity="1.0" fill-opacity="1.0" stroke="rgb(0,0,0)" stroke-miterlimit="10.0"><path d="M 475.4286,178.2857 c 0.0000,-2.5247 -2.0467,-4.5714 -4.5714 -4.5714c -2.5247,-0.0000 -4.5714,2.0467 -4.5714 4.5714c -0.0000,2.5247 2.0467,4.5714 4.5714 4.5714c 2.5247,0.0000 4.5714,-2.0467 4.5714 -4.5714Z"/></g><g stroke-width="1.5788313942370706" fill="rgb(0,0,0)" stroke-linecap="butt" stroke-linejoin="miter" stroke-opacity="1.0" fill-opacity="1.0" stroke="rgb(0,0,0)" stroke-miterlimit="10.0"><path d="M 475.4286,269.7143 c 0.0000,-2.5247 -2.0467,-4.5714 -4.5714 -4.5714c -2.5247,-0.0000 -4.5714,2.0467 -4.5714 4.5714c -0.0000,2.5247 2.0467,4.5714 4.5714 4.5714c 2.5247,0.0000 4.5714,-2.0467 4.5714 -4.5714Z"/></g><g stroke-width="2.960308864194507" fill="rgb(0,0,0)" stroke-linecap="round" stroke-linejoin="miter" stroke-opacity="1.0" fill-opacity="0.0" stroke="rgb(0,0,0)" stroke-miterlimit="10.0"><path d="M 470.8571,224.0000 v 22.8571 "/></g><g stroke-width="2.960308864194507" fill="rgb(0,0,0)" stroke-linecap="round" stroke-linejoin="miter" stroke-opacity="1.0" fill-opacity="0.0" stroke="rgb(0,0,0)" stroke-miterlimit="10.0"><path d="M 470.8571,201.1429 v 22.8571 "/></g><g stroke-width="2.960308864194507" fill="rgb(0,0,0)" stroke-linecap="round" stroke-linejoin="miter" stroke-opacity="1.0" fill-opacity="0.0" stroke="rgb(0,0,0)" stroke-miterlimit="10.0"><path d="M 448.0000,224.0000 v 22.8571 "/></g><g stroke-width="2.960308864194507" fill="rgb(0,0,0)" stroke-linecap="round" stroke-linejoin="miter" stroke-opacity="1.0" fill-opacity="0.0" stroke="rgb(0,0,0)" stroke-miterlimit="10.0"><path d="M 448.0000,201.1429 v 22.8571 "/></g><g stroke-width="2.960308864194507" fill="rgb(0,0,0)" stroke-linecap="round" stroke-linejoin="miter" stroke-opacity="1.0" fill-opacity="0.0" stroke="rgb(0,0,0)" stroke-miterlimit="10.0"><path d="M 425.1429,246.8571 v 22.8571 "/></g><g stroke-width="2.960308864194507" fill="rgb(0,0,0)" stroke-linecap="round" stroke-linejoin="miter" stroke-opacity="1.0" fill-opacity="0.0" stroke="rgb(0,0,0)" stroke-miterlimit="10.0"><path d="M 425.1429,224.0000 v 22.8571 "/></g><g stroke-width="2.960308864194507" fill="rgb(0,0,0)" stroke-linecap="round" stroke-linejoin="miter" stroke-opacity="1.0" fill-opacity="0.0" stroke="rgb(0,0,0)" stroke-miterlimit="10.0"><path d="M 425.1429,201.1429 v 22.8571 "/></g><g stroke-width="2.960308864194507" fill="rgb(0,0,0)" stroke-linecap="round" stroke-linejoin="miter" stroke-opacity="1.0" fill-opacity="0.0" stroke="rgb(0,0,0)" stroke-miterlimit="10.0"><path d="M 425.1429,178.2857 v 22.8571 "/></g><g stroke-width="2.960308864194507" fill="rgb(0,0,0)" stroke-linecap="round" stroke-linejoin="miter" stroke-opacity="1.0" fill-opacity="0.0" stroke="rgb(0,0,0)" stroke-miterlimit="10.0"><path d="M 402.2857,246.8571 v 22.8571 "/></g><g stroke-width="2.960308864194507" fill="rgb(0,0,0)" stroke-linecap="round" stroke-linejoin="miter" stroke-opacity="1.0" fill-opacity="0.0" stroke="rgb(0,0,0)" stroke-miterlimit="10.0"><path d="M 425.1429,246.8571 h 22.8571 "/></g><g stroke-width="2.960308864194507" fill="rgb(0,0,0)" stroke-linecap="round" stroke-linejoin="miter" stroke-opacity="1.0" fill-opacity="0.0" stroke="rgb(0,0,0)" stroke-miterlimit="10.0"><path d="M 402.2857,246.8571 h 22.8571 "/></g><g stroke-width="2.960308864194507" fill="rgb(0,0,0)" stroke-linecap="round" stroke-linejoin="miter" stroke-opacity="1.0" fill-opacity="0.0" stroke="rgb(0,0,0)" stroke-miterlimit="10.0"><path d="M 402.2857,224.0000 h 22.8571 "/></g><g stroke-width="2.960308864194507" fill="rgb(0,0,0)" stroke-linecap="round" stroke-linejoin="miter" stroke-opacity="1.0" fill-opacity="0.0" stroke="rgb(0,0,0)" stroke-miterlimit="10.0"><path d="M 379.4286,224.0000 h 22.8571 "/></g><g stroke-width="2.960308864194507" fill="rgb(0,0,0)" stroke-linecap="round" stroke-linejoin="miter" stroke-opacity="1.0" fill-opacity="0.0" stroke="rgb(0,0,0)" stroke-miterlimit="10.0"><path d="M 448.0000,201.1429 h 22.8571 "/></g><g stroke-width="2.960308864194507" fill="rgb(0,0,0)" stroke-linecap="round" stroke-linejoin="miter" stroke-opacity="1.0" fill-opacity="0.0" stroke="rgb(0,0,0)" stroke-miterlimit="10.0"><path d="M 402.2857,201.1429 h 22.8571 "/></g><g font-size="45.714285714285715px" stroke-width="1.5788313942370706" fill="rgb(0,0,0)" stroke-linecap="butt" stroke-linejoin="miter" stroke-opacity="1.0" fill-opacity="1.0" stroke="rgb(0,0,0)" stroke-miterlimit="10.0"><text text-anchor="middle" transform="matrix(1.0000,0.0000,0.0000,1.0000,301.7143,274.2857)" dominant-baseline="text-before-edge" stroke="none">HO</text></g><g stroke-width="1.5788313942370706" fill="rgb(0,0,0)" stroke-linecap="butt" stroke-linejoin="miter" stroke-opacity="1.0" fill-opacity="1.0" stroke="rgb(0,0,0)" stroke-miterlimit="10.0"><path d="M 260.5714,269.7143 c 0.0000,-2.5247 -2.0467,-4.5714 -4.5714 -4.5714c -2.5247,-0.0000 -4.5714,2.0467 -4.5714 4.5714c -0.0000,2.5247 2.0467,4.5714 4.5714 4.5714c 2.5247,0.0000 4.5714,-2.0467 4.5714 -4.5714Z"/></g><g stroke-width="1.5788313942370706" fill="rgb(0,0,0)" stroke-linecap="butt" stroke-linejoin="miter" stroke-opacity="1.0" fill-opacity="1.0" stroke="rgb(0,0,0)" stroke-miterlimit="10.0"><path d="M 260.5714,178.2857 c 0.0000,-2.5247 -2.0467,-4.5714 -4.5714 -4.5714c -2.5247,-0.0000 -4.5714,2.0467 -4.5714 4.5714c -0.0000,2.5247 2.0467,4.5714 4.5714 4.5714c 2.5247,0.0000 4.5714,-2.0467 4.5714 -4.5714Z"/></g><g stroke-width="1.5788313942370706" fill="rgb(0,0,0)" stroke-linecap="butt" stroke-linejoin="miter" stroke-opacity="1.0" fill-opacity="1.0" stroke="rgb(0,0,0)" stroke-miterlimit="10.0"><path d="M 352.0000,178.2857 c 0.0000,-2.5247 -2.0467,-4.5714 -4.5714 -4.5714c -2.5247,-0.0000 -4.5714,2.0467 -4.5714 4.5714c -0.0000,2.5247 2.0467,4.5714 4.5714 4.5714c 2.5247,0.0000 4.5714,-2.0467 4.5714 -4.5714Z"/></g><g stroke-width="1.5788313942370706" fill="rgb(0,0,0)" stroke-linecap="butt" stroke-linejoin="miter" stroke-opacity="1.0" fill-opacity="1.0" stroke="rgb(0,0,0)" stroke-miterlimit="10.0"><path d="M 352.0000,269.7143 c 0.0000,-2.5247 -2.0467,-4.5714 -4.5714 -4.5714c -2.5247,-0.0000 -4.5714,2.0467 -4.5714 4.5714c -0.0000,2.5247 2.0467,4.5714 4.5714 4.5714c 2.5247,0.0000 4.5714,-2.0467 4.5714 -4.5714Z"/></g><g stroke-width="2.960308864194507" fill="rgb(0,0,0)" stroke-linecap="round" stroke-linejoin="miter" stroke-opacity="1.0" fill-opacity="0.0" stroke="rgb(0,0,0)" stroke-miterlimit="10.0"><path d="M 347.4286,246.8571 v 22.8571 "/></g><g stroke-width="2.960308864194507" fill="rgb(0,0,0)" stroke-linecap="round" stroke-linejoin="miter" stroke-opacity="1.0" fill-opacity="0.0" stroke="rgb(0,0,0)" stroke-miterlimit="10.0"><path d="M 347.4286,224.0000 v 22.8571 "/></g><g stroke-width="2.960308864194507" fill="rgb(0,0,0)" stroke-linecap="round" stroke-linejoin="miter" stroke-opacity="1.0" fill-opacity="0.0" stroke="rgb(0,0,0)" stroke-miterlimit="10.0"><path d="M 347.4286,201.1429 v 22.8571 "/></g><g stroke-width="2.960308864194507" fill="rgb(0,0,0)" stroke-linecap="round" stroke-linejoin="miter" stroke-opacity="1.0" fill-opacity="0.0" stroke="rgb(0,0,0)" stroke-miterlimit="10.0"><path d="M 324.5714,246.8571 v 22.8571 "/></g><g stroke-width="2.960308864194507" fill="rgb(0,0,0)" stroke-linecap="round" stroke-linejoin="miter" stroke-opacity="1.0" fill-opacity="0.0" stroke="rgb(0,0,0)" stroke-miterlimit="10.0"><path d="M 324.5714,224.0000 v 22.8571 "/></g><g stroke-width="2.960308864194507" fill="rgb(0,0,0)" stroke-linecap="round" stroke-linejoin="miter" stroke-opacity="1.0" fill-opacity="0.0" stroke="rgb(0,0,0)" stroke-miterlimit="10.0"><path d="M 324.5714,201.1429 v 22.8571 "/></g><g stroke-width="2.960308864194507" fill="rgb(0,0,0)" stroke-linecap="round" stroke-linejoin="miter" stroke-opacity="1.0" fill-opacity="0.0" stroke="rgb(0,0,0)" stroke-miterlimit="10.0"><path d="M 256.0000,201.1429 v 22.8571 "/></g><g stroke-width="2.960308864194507" fill="rgb(0,0,0)" stroke-linecap="round" stroke-linejoin="miter" stroke-opacity="1.0" fill-opacity="0.0" stroke="rgb(0,0,0)" stroke-miterlimit="10.0"><path d="M 256.0000,178.2857 v 22.8571 "/></g><g stroke-width="2.960308864194507" fill="rgb(0,0,0)" stroke-linecap="round" stroke-linejoin="miter" stroke-opacity="1.0" fill-opacity="0.0" stroke="rgb(0,0,0)" stroke-miterlimit="10.0"><path d="M 324.5714,269.7143 h 22.8571 "/></g><g stroke-width="2.960308864194507" fill="rgb(0,0,0)" stroke-linecap="round" stroke-linejoin="miter" stroke-opacity="1.0" fill-opacity="0.0" stroke="rgb(0,0,0)" stroke-miterlimit="10.0"><path d="M 324.5714,246.8571 h 22.8571 "/></g><g stroke-width="2.960308864194507" fill="rgb(0,0,0)" stroke-linecap="round" stroke-linejoin="miter" stroke-opacity="1.0" fill-opacity="0.0" stroke="rgb(0,0,0)" stroke-miterlimit="10.0"><path d="M 324.5714,224.0000 h 22.8571 "/></g><g stroke-width="2.960308864194507" fill="rgb(0,0,0)" stroke-linecap="round" stroke-linejoin="miter" stroke-opacity="1.0" fill-opacity="0.0" stroke="rgb(0,0,0)" stroke-miterlimit="10.0"><path d="M 301.7143,224.0000 h 22.8571 "/></g><g stroke-width="2.960308864194507" fill="rgb(0,0,0)" stroke-linecap="round" stroke-linejoin="miter" stroke-opacity="1.0" fill-opacity="0.0" stroke="rgb(0,0,0)" stroke-miterlimit="10.0"><path d="M 278.8571,224.0000 h 22.8571 "/></g><g stroke-width="2.960308864194507" fill="rgb(0,0,0)" stroke-linecap="round" stroke-linejoin="miter" stroke-opacity="1.0" fill-opacity="0.0" stroke="rgb(0,0,0)" stroke-miterlimit="10.0"><path d="M 256.0000,224.0000 h 22.8571 "/></g><g stroke-width="2.960308864194507" fill="rgb(0,0,0)" stroke-linecap="round" stroke-linejoin="miter" stroke-opacity="1.0" fill-opacity="0.0" stroke="rgb(0,0,0)" stroke-miterlimit="10.0"><path d="M 301.7143,201.1429 h 22.8571 "/></g><g stroke-width="2.960308864194507" fill="rgb(0,0,0)" stroke-linecap="round" stroke-linejoin="miter" stroke-opacity="1.0" fill-opacity="0.0" stroke="rgb(0,0,0)" stroke-miterlimit="10.0"><path d="M 278.8571,201.1429 h 22.8571 "/></g><g stroke-width="2.960308864194507" fill="rgb(0,0,0)" stroke-linecap="round" stroke-linejoin="miter" stroke-opacity="1.0" fill-opacity="0.0" stroke="rgb(0,0,0)" stroke-miterlimit="10.0"><path d="M 256.0000,201.1429 h 22.8571 "/></g><g font-size="45.714285714285715px" stroke-width="1.5788313942370706" fill="rgb(0,0,0)" stroke-linecap="butt" stroke-linejoin="miter" stroke-opacity="1.0" fill-opacity="1.0" stroke="rgb(0,0,0)" stroke-miterlimit="10.0"><text text-anchor="middle" transform="matrix(1.0000,0.0000,0.0000,1.0000,178.2857,274.2857)" dominant-baseline="text-before-edge" stroke="none">LE</text></g><g stroke-width="1.5788313942370706" fill="rgb(0,0,0)" stroke-linecap="butt" stroke-linejoin="miter" stroke-opacity="1.0" fill-opacity="1.0" stroke="rgb(0,0,0)" stroke-miterlimit="10.0"><path d="M 137.1429,269.7143 c 0.0000,-2.5247 -2.0467,-4.5714 -4.5714 -4.5714c -2.5247,-0.0000 -4.5714,2.0467 -4.5714 4.5714c -0.0000,2.5247 2.0467,4.5714 4.5714 4.5714c 2.5247,0.0000 4.5714,-2.0467 4.5714 -4.5714Z"/></g><g stroke-width="1.5788313942370706" fill="rgb(0,0,0)" stroke-linecap="butt" stroke-linejoin="miter" stroke-opacity="1.0" fill-opacity="1.0" stroke="rgb(0,0,0)" stroke-miterlimit="10.0"><path d="M 137.1429,178.2857 c 0.0000,-2.5247 -2.0467,-4.5714 -4.5714 -4.5714c -2.5247,-0.0000 -4.5714,2.0467 -4.5714 4.5714c -0.0000,2.5247 2.0467,4.5714 4.5714 4.5714c 2.5247,0.0000 4.5714,-2.0467 4.5714 -4.5714Z"/></g><g stroke-width="1.5788313942370706" fill="rgb(0,0,0)" stroke-linecap="butt" stroke-linejoin="miter" stroke-opacity="1.0" fill-opacity="1.0" stroke="rgb(0,0,0)" stroke-miterlimit="10.0"><path d="M 228.5714,178.2857 c 0.0000,-2.5247 -2.0467,-4.5714 -4.5714 -4.5714c -2.5247,-0.0000 -4.5714,2.0467 -4.5714 4.5714c -0.0000,2.5247 2.0467,4.5714 4.5714 4.5714c 2.5247,0.0000 4.5714,-2.0467 4.5714 -4.5714Z"/></g><g stroke-width="1.5788313942370706" fill="rgb(0,0,0)" stroke-linecap="butt" stroke-linejoin="miter" stroke-opacity="1.0" fill-opacity="1.0" stroke="rgb(0,0,0)" stroke-miterlimit="10.0"><path d="M 228.5714,269.7143 c 0.0000,-2.5247 -2.0467,-4.5714 -4.5714 -4.5714c -2.5247,-0.0000 -4.5714,2.0467 -4.5714 4.5714c -0.0000,2.5247 2.0467,4.5714 4.5714 4.5714c 2.5247,0.0000 4.5714,-2.0467 4.5714 -4.5714Z"/></g><g stroke-width="2.960308864194507" fill="rgb(0,0,0)" stroke-linecap="round" stroke-linejoin="miter" stroke-opacity="1.0" fill-opacity="0.0" stroke="rgb(0,0,0)" stroke-miterlimit="10.0"><path d="M 201.1429,201.1429 v 22.8571 "/></g><g stroke-width="2.960308864194507" fill="rgb(0,0,0)" stroke-linecap="round" stroke-linejoin="miter" stroke-opacity="1.0" fill-opacity="0.0" stroke="rgb(0,0,0)" stroke-miterlimit="10.0"><path d="M 178.2857,246.8571 v 22.8571 "/></g><g stroke-width="2.960308864194507" fill="rgb(0,0,0)" stroke-linecap="round" stroke-linejoin="miter" stroke-opacity="1.0" fill-opacity="0.0" stroke="rgb(0,0,0)" stroke-miterlimit="10.0"><path d="M 178.2857,224.0000 v 22.8571 "/></g><g stroke-width="2.960308864194507" fill="rgb(0,0,0)" stroke-linecap="round" stroke-linejoin="miter" stroke-opacity="1.0" fill-opacity="0.0" stroke="rgb(0,0,0)" stroke-miterlimit="10.0"><path d="M 178.2857,201.1429 v 22.8571 "/></g><g stroke-width="2.960308864194507" fill="rgb(0,0,0)" stroke-linecap="round" stroke-linejoin="miter" stroke-opacity="1.0" fill-opacity="0.0" stroke="rgb(0,0,0)" stroke-miterlimit="10.0"><path d="M 178.2857,178.2857 v 22.8571 "/></g><g stroke-width="2.960308864194507" fill="rgb(0,0,0)" stroke-linecap="round" stroke-linejoin="miter" stroke-opacity="1.0" fill-opacity="0.0" stroke="rgb(0,0,0)" stroke-miterlimit="10.0"><path d="M 155.4286,224.0000 v 22.8571 "/></g><g stroke-width="2.960308864194507" fill="rgb(0,0,0)" stroke-linecap="round" stroke-linejoin="miter" stroke-opacity="1.0" fill-opacity="0.0" stroke="rgb(0,0,0)" stroke-miterlimit="10.0"><path d="M 155.4286,201.1429 v 22.8571 "/></g><g stroke-width="2.960308864194507" fill="rgb(0,0,0)" stroke-linecap="round" stroke-linejoin="miter" stroke-opacity="1.0" fill-opacity="0.0" stroke="rgb(0,0,0)" stroke-miterlimit="10.0"><path d="M 155.4286,178.2857 v 22.8571 "/></g><g stroke-width="2.960308864194507" fill="rgb(0,0,0)" stroke-linecap="round" stroke-linejoin="miter" stroke-opacity="1.0" fill-opacity="0.0" stroke="rgb(0,0,0)" stroke-miterlimit="10.0"><path d="M 178.2857,246.8571 h 22.8571 "/></g><g stroke-width="2.960308864194507" fill="rgb(0,0,0)" stroke-linecap="round" stroke-linejoin="miter" stroke-opacity="1.0" fill-opacity="0.0" stroke="rgb(0,0,0)" stroke-miterlimit="10.0"><path d="M 155.4286,246.8571 h 22.8571 "/></g><g stroke-width="2.960308864194507" fill="rgb(0,0,0)" stroke-linecap="round" stroke-linejoin="miter" stroke-opacity="1.0" fill-opacity="0.0" stroke="rgb(0,0,0)" stroke-miterlimit="10.0"><path d="M 201.1429,224.0000 h 22.8571 "/></g><g stroke-width="2.960308864194507" fill="rgb(0,0,0)" stroke-linecap="round" stroke-linejoin="miter" stroke-opacity="1.0" fill-opacity="0.0" stroke="rgb(0,0,0)" stroke-miterlimit="10.0"><path d="M 155.4286,224.0000 h 22.8571 "/></g><g stroke-width="2.960308864194507" fill="rgb(0,0,0)" stroke-linecap="round" stroke-linejoin="miter" stroke-opacity="1.0" fill-opacity="0.0" stroke="rgb(0,0,0)" stroke-miterlimit="10.0"><path d="M 132.5714,224.0000 h 22.8571 "/></g><g stroke-width="2.960308864194507" fill="rgb(0,0,0)" stroke-linecap="round" stroke-linejoin="miter" stroke-opacity="1.0" fill-opacity="0.0" stroke="rgb(0,0,0)" stroke-miterlimit="10.0"><path d="M 178.2857,201.1429 h 22.8571 "/></g><g stroke-width="2.960308864194507" fill="rgb(0,0,0)" stroke-linecap="round" stroke-linejoin="miter" stroke-opacity="1.0" fill-opacity="0.0" stroke="rgb(0,0,0)" stroke-miterlimit="10.0"><path d="M 155.4286,201.1429 h 22.8571 "/></g><g stroke-width="2.960308864194507" fill="rgb(0,0,0)" stroke-linecap="round" stroke-linejoin="miter" stroke-opacity="1.0" fill-opacity="0.0" stroke="rgb(0,0,0)" stroke-miterlimit="10.0"><path d="M 132.5714,201.1429 h 22.8571 "/></g><g font-size="45.714285714285715px" stroke-width="1.5788313942370706" fill="rgb(0,0,0)" stroke-linecap="butt" stroke-linejoin="miter" stroke-opacity="1.0" fill-opacity="1.0" stroke="rgb(0,0,0)" stroke-miterlimit="10.0"><text text-anchor="middle" transform="matrix(1.0000,0.0000,0.0000,1.0000,54.8571,274.2857)" dominant-baseline="text-before-edge" stroke="none">CO</text></g><g stroke-width="1.5788313942370706" fill="rgb(0,0,0)" stroke-linecap="butt" stroke-linejoin="miter" stroke-opacity="1.0" fill-opacity="1.0" stroke="rgb(0,0,0)" stroke-miterlimit="10.0"><path d="M 13.7143,269.7143 c 0.0000,-2.5247 -2.0467,-4.5714 -4.5714 -4.5714c -2.5247,-0.0000 -4.5714,2.0467 -4.5714 4.5714c -0.0000,2.5247 2.0467,4.5714 4.5714 4.5714c 2.5247,0.0000 4.5714,-2.0467 4.5714 -4.5714Z"/></g><g stroke-width="1.5788313942370706" fill="rgb(0,0,0)" stroke-linecap="butt" stroke-linejoin="miter" stroke-opacity="1.0" fill-opacity="1.0" stroke="rgb(0,0,0)" stroke-miterlimit="10.0"><path d="M 13.7143,178.2857 c 0.0000,-2.5247 -2.0467,-4.5714 -4.5714 -4.5714c -2.5247,-0.0000 -4.5714,2.0467 -4.5714 4.5714c -0.0000,2.5247 2.0467,4.5714 4.5714 4.5714c 2.5247,0.0000 4.5714,-2.0467 4.5714 -4.5714Z"/></g><g stroke-width="1.5788313942370706" fill="rgb(0,0,0)" stroke-linecap="butt" stroke-linejoin="miter" stroke-opacity="1.0" fill-opacity="1.0" stroke="rgb(0,0,0)" stroke-miterlimit="10.0"><path d="M 105.1429,178.2857 c 0.0000,-2.5247 -2.0467,-4.5714 -4.5714 -4.5714c -2.5247,-0.0000 -4.5714,2.0467 -4.5714 4.5714c -0.0000,2.5247 2.0467,4.5714 4.5714 4.5714c 2.5247,0.0000 4.5714,-2.0467 4.5714 -4.5714Z"/></g><g stroke-width="1.5788313942370706" fill="rgb(0,0,0)" stroke-linecap="butt" stroke-linejoin="miter" stroke-opacity="1.0" fill-opacity="1.0" stroke="rgb(0,0,0)" stroke-miterlimit="10.0"><path d="M 105.1429,269.7143 c 0.0000,-2.5247 -2.0467,-4.5714 -4.5714 -4.5714c -2.5247,-0.0000 -4.5714,2.0467 -4.5714 4.5714c -0.0000,2.5247 2.0467,4.5714 4.5714 4.5714c 2.5247,0.0000 4.5714,-2.0467 4.5714 -4.5714Z"/></g><g stroke-width="2.960308864194507" fill="rgb(0,0,0)" stroke-linecap="round" stroke-linejoin="miter" stroke-opacity="1.0" fill-opacity="0.0" stroke="rgb(0,0,0)" stroke-miterlimit="10.0"><path d="M 100.5714,201.1429 v 22.8571 "/></g><g stroke-width="2.960308864194507" fill="rgb(0,0,0)" stroke-linecap="round" stroke-linejoin="miter" stroke-opacity="1.0" fill-opacity="0.0" stroke="rgb(0,0,0)" stroke-miterlimit="10.0"><path d="M 100.5714,178.2857 v 22.8571 "/></g><g stroke-width="2.960308864194507" fill="rgb(0,0,0)" stroke-linecap="round" stroke-linejoin="miter" stroke-opacity="1.0" fill-opacity="0.0" stroke="rgb(0,0,0)" stroke-miterlimit="10.0"><path d="M 77.7143,246.8571 v 22.8571 "/></g><g stroke-width="2.960308864194507" fill="rgb(0,0,0)" stroke-linecap="round" stroke-linejoin="miter" stroke-opacity="1.0" fill-opacity="0.0" stroke="rgb(0,0,0)" stroke-miterlimit="10.0"><path d="M 77.7143,224.0000 v 22.8571 "/></g><g stroke-width="2.960308864194507" fill="rgb(0,0,0)" stroke-linecap="round" stroke-linejoin="miter" stroke-opacity="1.0" fill-opacity="0.0" stroke="rgb(0,0,0)" stroke-miterlimit="10.0"><path d="M 77.7143,201.1429 v 22.8571 "/></g><g stroke-width="2.960308864194507" fill="rgb(0,0,0)" stroke-linecap="round" stroke-linejoin="miter" stroke-opacity="1.0" fill-opacity="0.0" stroke="rgb(0,0,0)" stroke-miterlimit="10.0"><path d="M 32.0000,224.0000 v 22.8571 "/></g><g stroke-width="2.960308864194507" fill="rgb(0,0,0)" stroke-linecap="round" stroke-linejoin="miter" stroke-opacity="1.0" fill-opacity="0.0" stroke="rgb(0,0,0)" stroke-miterlimit="10.0"><path d="M 32.0000,201.1429 v 22.8571 "/></g><g stroke-width="2.960308864194507" fill="rgb(0,0,0)" stroke-linecap="round" stroke-linejoin="miter" stroke-opacity="1.0" fill-opacity="0.0" stroke="rgb(0,0,0)" stroke-miterlimit="10.0"><path d="M 9.1429,201.1429 v 22.8571 "/></g><g stroke-width="2.960308864194507" fill="rgb(0,0,0)" stroke-linecap="round" stroke-linejoin="miter" stroke-opacity="1.0" fill-opacity="0.0" stroke="rgb(0,0,0)" stroke-miterlimit="10.0"><path d="M 77.7143,246.8571 h 22.8571 "/></g><g stroke-width="2.960308864194507" fill="rgb(0,0,0)" stroke-linecap="round" stroke-linejoin="miter" stroke-opacity="1.0" fill-opacity="0.0" stroke="rgb(0,0,0)" stroke-miterlimit="10.0"><path d="M 77.7143,224.0000 h 22.8571 "/></g><g stroke-width="2.960308864194507" fill="rgb(0,0,0)" stroke-linecap="round" stroke-linejoin="miter" stroke-opacity="1.0" fill-opacity="0.0" stroke="rgb(0,0,0)" stroke-miterlimit="10.0"><path d="M 54.8571,224.0000 h 22.8571 "/></g><g stroke-width="2.960308864194507" fill="rgb(0,0,0)" stroke-linecap="round" stroke-linejoin="miter" stroke-opacity="1.0" fill-opacity="0.0" stroke="rgb(0,0,0)" stroke-miterlimit="10.0"><path d="M 32.0000,224.0000 h 22.8571 "/></g><g stroke-width="2.960308864194507" fill="rgb(0,0,0)" stroke-linecap="round" stroke-linejoin="miter" stroke-opacity="1.0" fill-opacity="0.0" stroke="rgb(0,0,0)" stroke-miterlimit="10.0"><path d="M 9.1429,224.0000 h 22.8571 "/></g><g stroke-width="2.960308864194507" fill="rgb(0,0,0)" stroke-linecap="round" stroke-linejoin="miter" stroke-opacity="1.0" fill-opacity="0.0" stroke="rgb(0,0,0)" stroke-miterlimit="10.0"><path d="M 54.8571,201.1429 h 22.8571 "/></g><g stroke-width="2.960308864194507" fill="rgb(0,0,0)" stroke-linecap="round" stroke-linejoin="miter" stroke-opacity="1.0" fill-opacity="0.0" stroke="rgb(0,0,0)" stroke-miterlimit="10.0"><path d="M 32.0000,201.1429 h 22.8571 "/></g><g stroke-width="2.960308864194507" fill="rgb(0,0,0)" stroke-linecap="round" stroke-linejoin="miter" stroke-opacity="1.0" fill-opacity="0.0" stroke="rgb(0,0,0)" stroke-miterlimit="10.0"><path d="M 9.1429,201.1429 h 22.8571 "/></g><g font-size="45.714285714285715px" stroke-width="1.5788313942370706" fill="rgb(0,0,0)" stroke-linecap="butt" stroke-linejoin="miter" stroke-opacity="1.0" fill-opacity="1.0" stroke="rgb(0,0,0)" stroke-miterlimit="10.0"><text text-anchor="middle" transform="matrix(1.0000,0.0000,0.0000,1.0000,425.1429,105.1429)" dominant-baseline="text-before-edge" stroke="none">DF</text></g><g stroke-width="1.5788313942370706" fill="rgb(0,0,0)" stroke-linecap="butt" stroke-linejoin="miter" stroke-opacity="1.0" fill-opacity="1.0" stroke="rgb(0,0,0)" stroke-miterlimit="10.0"><path d="M 384.0000,100.5714 c 0.0000,-2.5247 -2.0467,-4.5714 -4.5714 -4.5714c -2.5247,-0.0000 -4.5714,2.0467 -4.5714 4.5714c -0.0000,2.5247 2.0467,4.5714 4.5714 4.5714c 2.5247,0.0000 4.5714,-2.0467 4.5714 -4.5714Z"/></g><g stroke-width="1.5788313942370706" fill="rgb(0,0,0)" stroke-linecap="butt" stroke-linejoin="miter" stroke-opacity="1.0" fill-opacity="1.0" stroke="rgb(0,0,0)" stroke-miterlimit="10.0"><path d="M 384.0000,9.1429 c 0.0000,-2.5247 -2.0467,-4.5714 -4.5714 -4.5714c -2.5247,-0.0000 -4.5714,2.0467 -4.5714 4.5714c -0.0000,2.5247 2.0467,4.5714 4.5714 4.5714c 2.5247,0.0000 4.5714,-2.0467 4.5714 -4.5714Z"/></g><g stroke-width="1.5788313942370706" fill="rgb(0,0,0)" stroke-linecap="butt" stroke-linejoin="miter" stroke-opacity="1.0" fill-opacity="1.0" stroke="rgb(0,0,0)" stroke-miterlimit="10.0"><path d="M 475.4286,9.1429 c 0.0000,-2.5247 -2.0467,-4.5714 -4.5714 -4.5714c -2.5247,-0.0000 -4.5714,2.0467 -4.5714 4.5714c -0.0000,2.5247 2.0467,4.5714 4.5714 4.5714c 2.5247,0.0000 4.5714,-2.0467 4.5714 -4.5714Z"/></g><g stroke-width="1.5788313942370706" fill="rgb(0,0,0)" stroke-linecap="butt" stroke-linejoin="miter" stroke-opacity="1.0" fill-opacity="1.0" stroke="rgb(0,0,0)" stroke-miterlimit="10.0"><path d="M 475.4286,100.5714 c 0.0000,-2.5247 -2.0467,-4.5714 -4.5714 -4.5714c -2.5247,-0.0000 -4.5714,2.0467 -4.5714 4.5714c -0.0000,2.5247 2.0467,4.5714 4.5714 4.5714c 2.5247,0.0000 4.5714,-2.0467 4.5714 -4.5714Z"/></g><g stroke-width="2.960308864194507" fill="rgb(0,0,0)" stroke-linecap="round" stroke-linejoin="miter" stroke-opacity="1.0" fill-opacity="0.0" stroke="rgb(0,0,0)" stroke-miterlimit="10.0"><path d="M 470.8571,54.8571 v 22.8571 "/></g><g stroke-width="2.960308864194507" fill="rgb(0,0,0)" stroke-linecap="round" stroke-linejoin="miter" stroke-opacity="1.0" fill-opacity="0.0" stroke="rgb(0,0,0)" stroke-miterlimit="10.0"><path d="M 470.8571,32.0000 v 22.8571 "/></g><g stroke-width="2.960308864194507" fill="rgb(0,0,0)" stroke-linecap="round" stroke-linejoin="miter" stroke-opacity="1.0" fill-opacity="0.0" stroke="rgb(0,0,0)" stroke-miterlimit="10.0"><path d="M 448.0000,77.7143 v 22.8571 "/></g><g stroke-width="2.960308864194507" fill="rgb(0,0,0)" stroke-linecap="round" stroke-linejoin="miter" stroke-opacity="1.0" fill-opacity="0.0" stroke="rgb(0,0,0)" stroke-miterlimit="10.0"><path d="M 448.0000,54.8571 v 22.8571 "/></g><g stroke-width="2.960308864194507" fill="rgb(0,0,0)" stroke-linecap="round" stroke-linejoin="miter" stroke-opacity="1.0" fill-opacity="0.0" stroke="rgb(0,0,0)" stroke-miterlimit="10.0"><path d="M 448.0000,32.0000 v 22.8571 "/></g><g stroke-width="2.960308864194507" fill="rgb(0,0,0)" stroke-linecap="round" stroke-linejoin="miter" stroke-opacity="1.0" fill-opacity="0.0" stroke="rgb(0,0,0)" stroke-miterlimit="10.0"><path d="M 425.1429,77.7143 v 22.8571 "/></g><g stroke-width="2.960308864194507" fill="rgb(0,0,0)" stroke-linecap="round" stroke-linejoin="miter" stroke-opacity="1.0" fill-opacity="0.0" stroke="rgb(0,0,0)" stroke-miterlimit="10.0"><path d="M 425.1429,54.8571 v 22.8571 "/></g><g stroke-width="2.960308864194507" fill="rgb(0,0,0)" stroke-linecap="round" stroke-linejoin="miter" stroke-opacity="1.0" fill-opacity="0.0" stroke="rgb(0,0,0)" stroke-miterlimit="10.0"><path d="M 425.1429,32.0000 v 22.8571 "/></g><g stroke-width="2.960308864194507" fill="rgb(0,0,0)" stroke-linecap="round" stroke-linejoin="miter" stroke-opacity="1.0" fill-opacity="0.0" stroke="rgb(0,0,0)" stroke-miterlimit="10.0"><path d="M 402.2857,77.7143 v 22.8571 "/></g><g stroke-width="2.960308864194507" fill="rgb(0,0,0)" stroke-linecap="round" stroke-linejoin="miter" stroke-opacity="1.0" fill-opacity="0.0" stroke="rgb(0,0,0)" stroke-miterlimit="10.0"><path d="M 448.0000,77.7143 h 22.8571 "/></g><g stroke-width="2.960308864194507" fill="rgb(0,0,0)" stroke-linecap="round" stroke-linejoin="miter" stroke-opacity="1.0" fill-opacity="0.0" stroke="rgb(0,0,0)" stroke-miterlimit="10.0"><path d="M 425.1429,77.7143 h 22.8571 "/></g><g stroke-width="2.960308864194507" fill="rgb(0,0,0)" stroke-linecap="round" stroke-linejoin="miter" stroke-opacity="1.0" fill-opacity="0.0" stroke="rgb(0,0,0)" stroke-miterlimit="10.0"><path d="M 402.2857,77.7143 h 22.8571 "/></g><g stroke-width="2.960308864194507" fill="rgb(0,0,0)" stroke-linecap="round" stroke-linejoin="miter" stroke-opacity="1.0" fill-opacity="0.0" stroke="rgb(0,0,0)" stroke-miterlimit="10.0"><path d="M 402.2857,54.8571 h 22.8571 "/></g><g stroke-width="2.960308864194507" fill="rgb(0,0,0)" stroke-linecap="round" stroke-linejoin="miter" stroke-opacity="1.0" fill-opacity="0.0" stroke="rgb(0,0,0)" stroke-miterlimit="10.0"><path d="M 448.0000,32.0000 h 22.8571 "/></g><g font-size="45.714285714285715px" stroke-width="1.5788313942370706" fill="rgb(0,0,0)" stroke-linecap="butt" stroke-linejoin="miter" stroke-opacity="1.0" fill-opacity="1.0" stroke="rgb(0,0,0)" stroke-miterlimit="10.0"><text text-anchor="middle" transform="matrix(1.0000,0.0000,0.0000,1.0000,301.7143,105.1429)" dominant-baseline="text-before-edge" stroke="none">AV</text></g><g stroke-width="1.5788313942370706" fill="rgb(0,0,0)" stroke-linecap="butt" stroke-linejoin="miter" stroke-opacity="1.0" fill-opacity="1.0" stroke="rgb(0,0,0)" stroke-miterlimit="10.0"><path d="M 260.5714,100.5714 c 0.0000,-2.5247 -2.0467,-4.5714 -4.5714 -4.5714c -2.5247,-0.0000 -4.5714,2.0467 -4.5714 4.5714c -0.0000,2.5247 2.0467,4.5714 4.5714 4.5714c 2.5247,0.0000 4.5714,-2.0467 4.5714 -4.5714Z"/></g><g stroke-width="1.5788313942370706" fill="rgb(0,0,0)" stroke-linecap="butt" stroke-linejoin="miter" stroke-opacity="1.0" fill-opacity="1.0" stroke="rgb(0,0,0)" stroke-miterlimit="10.0"><path d="M 260.5714,9.1429 c 0.0000,-2.5247 -2.0467,-4.5714 -4.5714 -4.5714c -2.5247,-0.0000 -4.5714,2.0467 -4.5714 4.5714c -0.0000,2.5247 2.0467,4.5714 4.5714 4.5714c 2.5247,0.0000 4.5714,-2.0467 4.5714 -4.5714Z"/></g><g stroke-width="1.5788313942370706" fill="rgb(0,0,0)" stroke-linecap="butt" stroke-linejoin="miter" stroke-opacity="1.0" fill-opacity="1.0" stroke="rgb(0,0,0)" stroke-miterlimit="10.0"><path d="M 352.0000,9.1429 c 0.0000,-2.5247 -2.0467,-4.5714 -4.5714 -4.5714c -2.5247,-0.0000 -4.5714,2.0467 -4.5714 4.5714c -0.0000,2.5247 2.0467,4.5714 4.5714 4.5714c 2.5247,0.0000 4.5714,-2.0467 4.5714 -4.5714Z"/></g><g stroke-width="1.5788313942370706" fill="rgb(0,0,0)" stroke-linecap="butt" stroke-linejoin="miter" stroke-opacity="1.0" fill-opacity="1.0" stroke="rgb(0,0,0)" stroke-miterlimit="10.0"><path d="M 352.0000,100.5714 c 0.0000,-2.5247 -2.0467,-4.5714 -4.5714 -4.5714c -2.5247,-0.0000 -4.5714,2.0467 -4.5714 4.5714c -0.0000,2.5247 2.0467,4.5714 4.5714 4.5714c 2.5247,0.0000 4.5714,-2.0467 4.5714 -4.5714Z"/></g><g stroke-width="2.960308864194507" fill="rgb(0,0,0)" stroke-linecap="round" stroke-linejoin="miter" stroke-opacity="1.0" fill-opacity="0.0" stroke="rgb(0,0,0)" stroke-miterlimit="10.0"><path d="M 347.4286,77.7143 v 22.8571 "/></g><g stroke-width="2.960308864194507" fill="rgb(0,0,0)" stroke-linecap="round" stroke-linejoin="miter" stroke-opacity="1.0" fill-opacity="0.0" stroke="rgb(0,0,0)" stroke-miterlimit="10.0"><path d="M 347.4286,54.8571 v 22.8571 "/></g><g stroke-width="2.960308864194507" fill="rgb(0,0,0)" stroke-linecap="round" stroke-linejoin="miter" stroke-opacity="1.0" fill-opacity="0.0" stroke="rgb(0,0,0)" stroke-miterlimit="10.0"><path d="M 347.4286,32.0000 v 22.8571 "/></g><g stroke-width="2.960308864194507" fill="rgb(0,0,0)" stroke-linecap="round" stroke-linejoin="miter" stroke-opacity="1.0" fill-opacity="0.0" stroke="rgb(0,0,0)" stroke-miterlimit="10.0"><path d="M 324.5714,77.7143 v 22.8571 "/></g><g stroke-width="2.960308864194507" fill="rgb(0,0,0)" stroke-linecap="round" stroke-linejoin="miter" stroke-opacity="1.0" fill-opacity="0.0" stroke="rgb(0,0,0)" stroke-miterlimit="10.0"><path d="M 301.7143,54.8571 v 22.8571 "/></g><g stroke-width="2.960308864194507" fill="rgb(0,0,0)" stroke-linecap="round" stroke-linejoin="miter" stroke-opacity="1.0" fill-opacity="0.0" stroke="rgb(0,0,0)" stroke-miterlimit="10.0"><path d="M 301.7143,32.0000 v 22.8571 "/></g><g stroke-width="2.960308864194507" fill="rgb(0,0,0)" stroke-linecap="round" stroke-linejoin="miter" stroke-opacity="1.0" fill-opacity="0.0" stroke="rgb(0,0,0)" stroke-miterlimit="10.0"><path d="M 278.8571,77.7143 v 22.8571 "/></g><g stroke-width="2.960308864194507" fill="rgb(0,0,0)" stroke-linecap="round" stroke-linejoin="miter" stroke-opacity="1.0" fill-opacity="0.0" stroke="rgb(0,0,0)" stroke-miterlimit="10.0"><path d="M 278.8571,54.8571 v 22.8571 "/></g><g stroke-width="2.960308864194507" fill="rgb(0,0,0)" stroke-linecap="round" stroke-linejoin="miter" stroke-opacity="1.0" fill-opacity="0.0" stroke="rgb(0,0,0)" stroke-miterlimit="10.0"><path d="M 278.8571,32.0000 v 22.8571 "/></g><g stroke-width="2.960308864194507" fill="rgb(0,0,0)" stroke-linecap="round" stroke-linejoin="miter" stroke-opacity="1.0" fill-opacity="0.0" stroke="rgb(0,0,0)" stroke-miterlimit="10.0"><path d="M 256.0000,77.7143 v 22.8571 "/></g><g stroke-width="2.960308864194507" fill="rgb(0,0,0)" stroke-linecap="round" stroke-linejoin="miter" stroke-opacity="1.0" fill-opacity="0.0" stroke="rgb(0,0,0)" stroke-miterlimit="10.0"><path d="M 256.0000,54.8571 v 22.8571 "/></g><g stroke-width="2.960308864194507" fill="rgb(0,0,0)" stroke-linecap="round" stroke-linejoin="miter" stroke-opacity="1.0" fill-opacity="0.0" stroke="rgb(0,0,0)" stroke-miterlimit="10.0"><path d="M 324.5714,100.5714 h 22.8571 "/></g><g stroke-width="2.960308864194507" fill="rgb(0,0,0)" stroke-linecap="round" stroke-linejoin="miter" stroke-opacity="1.0" fill-opacity="0.0" stroke="rgb(0,0,0)" stroke-miterlimit="10.0"><path d="M 301.7143,77.7143 h 22.8571 "/></g><g stroke-width="2.960308864194507" fill="rgb(0,0,0)" stroke-linecap="round" stroke-linejoin="miter" stroke-opacity="1.0" fill-opacity="0.0" stroke="rgb(0,0,0)" stroke-miterlimit="10.0"><path d="M 278.8571,77.7143 h 22.8571 "/></g><g stroke-width="2.960308864194507" fill="rgb(0,0,0)" stroke-linecap="round" stroke-linejoin="miter" stroke-opacity="1.0" fill-opacity="0.0" stroke="rgb(0,0,0)" stroke-miterlimit="10.0"><path d="M 256.0000,77.7143 h 22.8571 "/></g><g stroke-width="2.960308864194507" fill="rgb(0,0,0)" stroke-linecap="round" stroke-linejoin="miter" stroke-opacity="1.0" fill-opacity="0.0" stroke="rgb(0,0,0)" stroke-miterlimit="10.0"><path d="M 324.5714,54.8571 h 22.8571 "/></g><g stroke-width="2.960308864194507" fill="rgb(0,0,0)" stroke-linecap="round" stroke-linejoin="miter" stroke-opacity="1.0" fill-opacity="0.0" stroke="rgb(0,0,0)" stroke-miterlimit="10.0"><path d="M 301.7143,32.0000 h 22.8571 "/></g><g stroke-width="2.960308864194507" fill="rgb(0,0,0)" stroke-linecap="round" stroke-linejoin="miter" stroke-opacity="1.0" fill-opacity="0.0" stroke="rgb(0,0,0)" stroke-miterlimit="10.0"><path d="M 278.8571,32.0000 h 22.8571 "/></g><g stroke-width="2.960308864194507" fill="rgb(0,0,0)" stroke-linecap="round" stroke-linejoin="miter" stroke-opacity="1.0" fill-opacity="0.0" stroke="rgb(0,0,0)" stroke-miterlimit="10.0"><path d="M 256.0000,32.0000 h 22.8571 "/></g><g font-size="45.714285714285715px" stroke-width="1.5788313942370706" fill="rgb(0,0,0)" stroke-linecap="butt" stroke-linejoin="miter" stroke-opacity="1.0" fill-opacity="1.0" stroke="rgb(0,0,0)" stroke-miterlimit="10.0"><text text-anchor="middle" transform="matrix(1.0000,0.0000,0.0000,1.0000,178.2857,105.1429)" dominant-baseline="text-before-edge" stroke="none">UH</text></g><g stroke-width="1.5788313942370706" fill="rgb(0,0,0)" stroke-linecap="butt" stroke-linejoin="miter" stroke-opacity="1.0" fill-opacity="1.0" stroke="rgb(0,0,0)" stroke-miterlimit="10.0"><path d="M 137.1429,100.5714 c 0.0000,-2.5247 -2.0467,-4.5714 -4.5714 -4.5714c -2.5247,-0.0000 -4.5714,2.0467 -4.5714 4.5714c -0.0000,2.5247 2.0467,4.5714 4.5714 4.5714c 2.5247,0.0000 4.5714,-2.0467 4.5714 -4.5714Z"/></g><g stroke-width="1.5788313942370706" fill="rgb(0,0,0)" stroke-linecap="butt" stroke-linejoin="miter" stroke-opacity="1.0" fill-opacity="1.0" stroke="rgb(0,0,0)" stroke-miterlimit="10.0"><path d="M 137.1429,9.1429 c 0.0000,-2.5247 -2.0467,-4.5714 -4.5714 -4.5714c -2.5247,-0.0000 -4.5714,2.0467 -4.5714 4.5714c -0.0000,2.5247 2.0467,4.5714 4.5714 4.5714c 2.5247,0.0000 4.5714,-2.0467 4.5714 -4.5714Z"/></g><g stroke-width="1.5788313942370706" fill="rgb(0,0,0)" stroke-linecap="butt" stroke-linejoin="miter" stroke-opacity="1.0" fill-opacity="1.0" stroke="rgb(0,0,0)" stroke-miterlimit="10.0"><path d="M 228.5714,9.1429 c 0.0000,-2.5247 -2.0467,-4.5714 -4.5714 -4.5714c -2.5247,-0.0000 -4.5714,2.0467 -4.5714 4.5714c -0.0000,2.5247 2.0467,4.5714 4.5714 4.5714c 2.5247,0.0000 4.5714,-2.0467 4.5714 -4.5714Z"/></g><g stroke-width="1.5788313942370706" fill="rgb(0,0,0)" stroke-linecap="butt" stroke-linejoin="miter" stroke-opacity="1.0" fill-opacity="1.0" stroke="rgb(0,0,0)" stroke-miterlimit="10.0"><path d="M 228.5714,100.5714 c 0.0000,-2.5247 -2.0467,-4.5714 -4.5714 -4.5714c -2.5247,-0.0000 -4.5714,2.0467 -4.5714 4.5714c -0.0000,2.5247 2.0467,4.5714 4.5714 4.5714c 2.5247,0.0000 4.5714,-2.0467 4.5714 -4.5714Z"/></g><g stroke-width="2.960308864194507" fill="rgb(0,0,0)" stroke-linecap="round" stroke-linejoin="miter" stroke-opacity="1.0" fill-opacity="0.0" stroke="rgb(0,0,0)" stroke-miterlimit="10.0"><path d="M 224.0000,77.7143 v 22.8571 "/></g><g stroke-width="2.960308864194507" fill="rgb(0,0,0)" stroke-linecap="round" stroke-linejoin="miter" stroke-opacity="1.0" fill-opacity="0.0" stroke="rgb(0,0,0)" stroke-miterlimit="10.0"><path d="M 224.0000,54.8571 v 22.8571 "/></g><g stroke-width="2.960308864194507" fill="rgb(0,0,0)" stroke-linecap="round" stroke-linejoin="miter" stroke-opacity="1.0" fill-opacity="0.0" stroke="rgb(0,0,0)" stroke-miterlimit="10.0"><path d="M 224.0000,32.0000 v 22.8571 "/></g><g stroke-width="2.960308864194507" fill="rgb(0,0,0)" stroke-linecap="round" stroke-linejoin="miter" stroke-opacity="1.0" fill-opacity="0.0" stroke="rgb(0,0,0)" stroke-miterlimit="10.0"><path d="M 178.2857,54.8571 v 22.8571 "/></g><g stroke-width="2.960308864194507" fill="rgb(0,0,0)" stroke-linecap="round" stroke-linejoin="miter" stroke-opacity="1.0" fill-opacity="0.0" stroke="rgb(0,0,0)" stroke-miterlimit="10.0"><path d="M 178.2857,32.0000 v 22.8571 "/></g><g stroke-width="2.960308864194507" fill="rgb(0,0,0)" stroke-linecap="round" stroke-linejoin="miter" stroke-opacity="1.0" fill-opacity="0.0" stroke="rgb(0,0,0)" stroke-miterlimit="10.0"><path d="M 155.4286,54.8571 v 22.8571 "/></g><g stroke-width="2.960308864194507" fill="rgb(0,0,0)" stroke-linecap="round" stroke-linejoin="miter" stroke-opacity="1.0" fill-opacity="0.0" stroke="rgb(0,0,0)" stroke-miterlimit="10.0"><path d="M 155.4286,32.0000 v 22.8571 "/></g><g stroke-width="2.960308864194507" fill="rgb(0,0,0)" stroke-linecap="round" stroke-linejoin="miter" stroke-opacity="1.0" fill-opacity="0.0" stroke="rgb(0,0,0)" stroke-miterlimit="10.0"><path d="M 132.5714,32.0000 v 22.8571 "/></g><g stroke-width="2.960308864194507" fill="rgb(0,0,0)" stroke-linecap="round" stroke-linejoin="miter" stroke-opacity="1.0" fill-opacity="0.0" stroke="rgb(0,0,0)" stroke-miterlimit="10.0"><path d="M 132.5714,9.1429 v 22.8571 "/></g><g stroke-width="2.960308864194507" fill="rgb(0,0,0)" stroke-linecap="round" stroke-linejoin="miter" stroke-opacity="1.0" fill-opacity="0.0" stroke="rgb(0,0,0)" stroke-miterlimit="10.0"><path d="M 201.1429,100.5714 h 22.8571 "/></g><g stroke-width="2.960308864194507" fill="rgb(0,0,0)" stroke-linecap="round" stroke-linejoin="miter" stroke-opacity="1.0" fill-opacity="0.0" stroke="rgb(0,0,0)" stroke-miterlimit="10.0"><path d="M 178.2857,77.7143 h 22.8571 "/></g><g stroke-width="2.960308864194507" fill="rgb(0,0,0)" stroke-linecap="round" stroke-linejoin="miter" stroke-opacity="1.0" fill-opacity="0.0" stroke="rgb(0,0,0)" stroke-miterlimit="10.0"><path d="M 155.4286,77.7143 h 22.8571 "/></g><g stroke-width="2.960308864194507" fill="rgb(0,0,0)" stroke-linecap="round" stroke-linejoin="miter" stroke-opacity="1.0" fill-opacity="0.0" stroke="rgb(0,0,0)" stroke-miterlimit="10.0"><path d="M 201.1429,54.8571 h 22.8571 "/></g><g stroke-width="2.960308864194507" fill="rgb(0,0,0)" stroke-linecap="round" stroke-linejoin="miter" stroke-opacity="1.0" fill-opacity="0.0" stroke="rgb(0,0,0)" stroke-miterlimit="10.0"><path d="M 178.2857,54.8571 h 22.8571 "/></g><g stroke-width="2.960308864194507" fill="rgb(0,0,0)" stroke-linecap="round" stroke-linejoin="miter" stroke-opacity="1.0" fill-opacity="0.0" stroke="rgb(0,0,0)" stroke-miterlimit="10.0"><path d="M 155.4286,54.8571 h 22.8571 "/></g><g stroke-width="2.960308864194507" fill="rgb(0,0,0)" stroke-linecap="round" stroke-linejoin="miter" stroke-opacity="1.0" fill-opacity="0.0" stroke="rgb(0,0,0)" stroke-miterlimit="10.0"><path d="M 132.5714,54.8571 h 22.8571 "/></g><g stroke-width="2.960308864194507" fill="rgb(0,0,0)" stroke-linecap="round" stroke-linejoin="miter" stroke-opacity="1.0" fill-opacity="0.0" stroke="rgb(0,0,0)" stroke-miterlimit="10.0"><path d="M 155.4286,32.0000 h 22.8571 "/></g><g stroke-width="2.960308864194507" fill="rgb(0,0,0)" stroke-linecap="round" stroke-linejoin="miter" stroke-opacity="1.0" fill-opacity="0.0" stroke="rgb(0,0,0)" stroke-miterlimit="10.0"><path d="M 132.5714,32.0000 h 22.8571 "/></g><g font-size="45.714285714285715px" stroke-width="1.5788313942370706" fill="rgb(0,0,0)" stroke-linecap="butt" stroke-linejoin="miter" stroke-opacity="1.0" fill-opacity="1.0" stroke="rgb(0,0,0)" stroke-miterlimit="10.0"><text text-anchor="middle" transform="matrix(1.0000,0.0000,0.0000,1.0000,54.8571,105.1429)" dominant-baseline="text-before-edge" stroke="none">YO</text></g><g stroke-width="1.5788313942370706" fill="rgb(0,0,0)" stroke-linecap="butt" stroke-linejoin="miter" stroke-opacity="1.0" fill-opacity="1.0" stroke="rgb(0,0,0)" stroke-miterlimit="10.0"><path d="M 13.7143,100.5714 c 0.0000,-2.5247 -2.0467,-4.5714 -4.5714 -4.5714c -2.5247,-0.0000 -4.5714,2.0467 -4.5714 4.5714c -0.0000,2.5247 2.0467,4.5714 4.5714 4.5714c 2.5247,0.0000 4.5714,-2.0467 4.5714 -4.5714Z"/></g><g stroke-width="1.5788313942370706" fill="rgb(0,0,0)" stroke-linecap="butt" stroke-linejoin="miter" stroke-opacity="1.0" fill-opacity="1.0" stroke="rgb(0,0,0)" stroke-miterlimit="10.0"><path d="M 13.7143,9.1429 c 0.0000,-2.5247 -2.0467,-4.5714 -4.5714 -4.5714c -2.5247,-0.0000 -4.5714,2.0467 -4.5714 4.5714c -0.0000,2.5247 2.0467,4.5714 4.5714 4.5714c 2.5247,0.0000 4.5714,-2.0467 4.5714 -4.5714Z"/></g><g stroke-width="1.5788313942370706" fill="rgb(0,0,0)" stroke-linecap="butt" stroke-linejoin="miter" stroke-opacity="1.0" fill-opacity="1.0" stroke="rgb(0,0,0)" stroke-miterlimit="10.0"><path d="M 105.1429,9.1429 c 0.0000,-2.5247 -2.0467,-4.5714 -4.5714 -4.5714c -2.5247,-0.0000 -4.5714,2.0467 -4.5714 4.5714c -0.0000,2.5247 2.0467,4.5714 4.5714 4.5714c 2.5247,0.0000 4.5714,-2.0467 4.5714 -4.5714Z"/></g><g stroke-width="1.5788313942370706" fill="rgb(0,0,0)" stroke-linecap="butt" stroke-linejoin="miter" stroke-opacity="1.0" fill-opacity="1.0" stroke="rgb(0,0,0)" stroke-miterlimit="10.0"><path d="M 105.1429,100.5714 c 0.0000,-2.5247 -2.0467,-4.5714 -4.5714 -4.5714c -2.5247,-0.0000 -4.5714,2.0467 -4.5714 4.5714c -0.0000,2.5247 2.0467,4.5714 4.5714 4.5714c 2.5247,0.0000 4.5714,-2.0467 4.5714 -4.5714Z"/></g><g stroke-width="2.960308864194507" fill="rgb(0,0,0)" stroke-linecap="round" stroke-linejoin="miter" stroke-opacity="1.0" fill-opacity="0.0" stroke="rgb(0,0,0)" stroke-miterlimit="10.0"><path d="M 100.5714,32.0000 v 22.8571 "/></g><g stroke-width="2.960308864194507" fill="rgb(0,0,0)" stroke-linecap="round" stroke-linejoin="miter" stroke-opacity="1.0" fill-opacity="0.0" stroke="rgb(0,0,0)" stroke-miterlimit="10.0"><path d="M 77.7143,77.7143 v 22.8571 "/></g><g stroke-width="2.960308864194507" fill="rgb(0,0,0)" stroke-linecap="round" stroke-linejoin="miter" stroke-opacity="1.0" fill-opacity="0.0" stroke="rgb(0,0,0)" stroke-miterlimit="10.0"><path d="M 77.7143,54.8571 v 22.8571 "/></g><g stroke-width="2.960308864194507" fill="rgb(0,0,0)" stroke-linecap="round" stroke-linejoin="miter" stroke-opacity="1.0" fill-opacity="0.0" stroke="rgb(0,0,0)" stroke-miterlimit="10.0"><path d="M 77.7143,32.0000 v 22.8571 "/></g><g stroke-width="2.960308864194507" fill="rgb(0,0,0)" stroke-linecap="round" stroke-linejoin="miter" stroke-opacity="1.0" fill-opacity="0.0" stroke="rgb(0,0,0)" stroke-miterlimit="10.0"><path d="M 54.8571,9.1429 v 22.8571 "/></g><g stroke-width="2.960308864194507" fill="rgb(0,0,0)" stroke-linecap="round" stroke-linejoin="miter" stroke-opacity="1.0" fill-opacity="0.0" stroke="rgb(0,0,0)" stroke-miterlimit="10.0"><path d="M 32.0000,77.7143 v 22.8571 "/></g><g stroke-width="2.960308864194507" fill="rgb(0,0,0)" stroke-linecap="round" stroke-linejoin="miter" stroke-opacity="1.0" fill-opacity="0.0" stroke="rgb(0,0,0)" stroke-miterlimit="10.0"><path d="M 32.0000,54.8571 v 22.8571 "/></g><g stroke-width="2.960308864194507" fill="rgb(0,0,0)" stroke-linecap="round" stroke-linejoin="miter" stroke-opacity="1.0" fill-opacity="0.0" stroke="rgb(0,0,0)" stroke-miterlimit="10.0"><path d="M 32.0000,32.0000 v 22.8571 "/></g><g stroke-width="2.960308864194507" fill="rgb(0,0,0)" stroke-linecap="round" stroke-linejoin="miter" stroke-opacity="1.0" fill-opacity="0.0" stroke="rgb(0,0,0)" stroke-miterlimit="10.0"><path d="M 32.0000,100.5714 h 22.8571 "/></g><g stroke-width="2.960308864194507" fill="rgb(0,0,0)" stroke-linecap="round" stroke-linejoin="miter" stroke-opacity="1.0" fill-opacity="0.0" stroke="rgb(0,0,0)" stroke-miterlimit="10.0"><path d="M 9.1429,100.5714 h 22.8571 "/></g><g stroke-width="2.960308864194507" fill="rgb(0,0,0)" stroke-linecap="round" stroke-linejoin="miter" stroke-opacity="1.0" fill-opacity="0.0" stroke="rgb(0,0,0)" stroke-miterlimit="10.0"><path d="M 77.7143,77.7143 h 22.8571 "/></g><g stroke-width="2.960308864194507" fill="rgb(0,0,0)" stroke-linecap="round" stroke-linejoin="miter" stroke-opacity="1.0" fill-opacity="0.0" stroke="rgb(0,0,0)" stroke-miterlimit="10.0"><path d="M 77.7143,54.8571 h 22.8571 "/></g><g stroke-width="2.960308864194507" fill="rgb(0,0,0)" stroke-linecap="round" stroke-linejoin="miter" stroke-opacity="1.0" fill-opacity="0.0" stroke="rgb(0,0,0)" stroke-miterlimit="10.0"><path d="M 77.7143,32.0000 h 22.8571 "/></g><g stroke-width="2.960308864194507" fill="rgb(0,0,0)" stroke-linecap="round" stroke-linejoin="miter" stroke-opacity="1.0" fill-opacity="0.0" stroke="rgb(0,0,0)" stroke-miterlimit="10.0"><path d="M 54.8571,32.0000 h 22.8571 "/></g><g stroke-width="2.960308864194507" fill="rgb(0,0,0)" stroke-linecap="round" stroke-linejoin="miter" stroke-opacity="1.0" fill-opacity="0.0" stroke="rgb(0,0,0)" stroke-miterlimit="10.0"><path d="M 32.0000,32.0000 h 22.8571 "/></g><g stroke-width="2.960308864194507" fill="rgb(0,0,0)" stroke-linecap="round" stroke-linejoin="miter" stroke-opacity="1.0" fill-opacity="0.0" stroke="rgb(0,0,0)" stroke-miterlimit="10.0"><path d="M 9.1429,32.0000 h 22.8571 "/></g></svg>